<svg width="229" height="89" viewBox="0 0 229 89" fill="none" xmlns="http://www.w3.org/2000/svg">
<path d="M22.8007 82V20.1818H43.6885C48.5181 20.1818 52.4823 21.0069 55.5813 22.657C58.6802 24.2869 60.9743 26.5307 62.4634 29.3881C63.9525 32.2456 64.697 35.4955 64.697 39.1378C64.697 42.7801 63.9525 46.0098 62.4634 48.8271C60.9743 51.6443 58.6903 53.8578 55.6115 55.4677C52.5326 57.0574 48.5986 57.8523 43.8093 57.8523H26.9059V51.0909H43.5678C46.868 51.0909 49.5242 50.608 51.5365 49.642C53.569 48.6761 55.038 47.3078 55.9435 45.5369C56.8692 43.746 57.332 41.6129 57.332 39.1378C57.332 36.6626 56.8692 34.4994 55.9435 32.6481C55.0178 30.7968 53.5388 29.368 51.5063 28.3619C49.4739 27.3356 46.7875 26.8224 43.447 26.8224H30.2865V82H22.8007ZM51.8988 54.2301L67.1118 82H58.4186L43.447 54.2301H51.8988Z" fill="black"/>
<path d="M88.3107 44.5455C88.3107 46.5398 87.9506 48.2633 87.2305 49.7159C86.5103 51.1686 85.5224 52.2888 84.2667 53.0767C83.011 53.8646 81.5768 54.2585 79.9641 54.2585C78.3514 54.2585 76.9173 53.8646 75.6616 53.0767C74.4059 52.2888 73.418 51.1686 72.6978 49.7159C71.9776 48.2633 71.6175 46.5398 71.6175 44.5455C71.6175 42.5511 71.9776 40.8277 72.6978 39.375C73.418 37.9223 74.4059 36.8021 75.6616 36.0142C76.9173 35.2263 78.3514 34.8324 79.9641 34.8324C81.5768 34.8324 83.011 35.2263 84.2667 36.0142C85.5224 36.8021 86.5103 37.9223 87.2305 39.375C87.9506 40.8277 88.3107 42.5511 88.3107 44.5455ZM86.0948 44.5455C86.0948 42.9081 85.8209 41.5263 85.2731 40.3999C84.7314 39.2734 83.9959 38.4209 83.0664 37.8423C82.1431 37.2637 81.109 36.9744 79.9641 36.9744C78.8192 36.9744 77.7821 37.2637 76.8526 37.8423C75.9293 38.4209 75.1938 39.2734 74.646 40.3999C74.1043 41.5263 73.8335 42.9081 73.8335 44.5455C73.8335 46.1828 74.1043 47.5646 74.646 48.6911C75.1938 49.8175 75.9293 50.67 76.8526 51.2486C77.7821 51.8272 78.8192 52.1165 79.9641 52.1165C81.109 52.1165 82.1431 51.8272 83.0664 51.2486C83.9959 50.67 84.7314 49.8175 85.2731 48.6911C85.8209 47.5646 86.0948 46.1828 86.0948 44.5455ZM92.9641 35.0909L97.8391 42.9574H97.9869L102.862 35.0909H105.558L99.6119 44.5455L105.558 54H102.862L97.9869 46.2812H97.8391L92.9641 54H90.2681L96.3619 44.5455L90.2681 35.0909H92.9641ZM109.313 54H106.913L113.856 35.0909H116.22L123.163 54H120.762L115.112 38.0824H114.964L109.313 54ZM110.2 46.6136H119.876V48.6449H110.2V46.6136ZM141.102 35.0909V54H138.887L128.583 39.1534H128.398V54H126.108V35.0909H128.324L138.665 49.9744H138.85V35.0909H141.102ZM145.684 54V35.0909H157.096V37.1222H147.974V43.5114H156.505V45.5426H147.974V51.9688H157.244V54H145.684Z" fill="black"/>
<path d="M72.4705 82V80.3381L82.6637 65.1222H72.3597V63.0909H85.3967V64.7528L75.2035 79.9688H85.5075V82H72.4705ZM90.1239 82H87.7234L94.6665 63.0909H97.0302L103.973 82H101.573L95.9222 66.0824H95.7745L90.1239 82ZM91.0103 74.6136H100.686V76.6449H91.0103V74.6136ZM109.208 63.0909V82H106.919V63.0909H109.208ZM112.765 65.1222V63.0909H126.947V65.1222H121.001V82H118.711V65.1222H112.765ZM117.696 88.2784L118.73 83.4957H120.964L119.395 88.2784H117.696Z" fill="black"/>
</svg>
